<svg xmlns="http://www.w3.org/2000/svg" xmlns:xlink="http://www.w3.org/1999/xlink" width="1000px" height="1000px"><defs><linearGradient id="b" x1="992.183" x2="1019.298" y1="516.081" y2="545.959" gradientTransform="translate(115.975 56.31) scale(1.02524)" gradientUnits="userSpaceOnUse" xlink:href="#a"/><linearGradient id="a"><stop offset="0" stop-color="#ff1679"/><stop offset="1" stop-color="#ff770b"/></linearGradient></defs><g transform="translate(-1131.111 -584.99)"><rect width="32" height="32" x="1131.111" y="584.989" fill="url(#b)" rx="6.763" ry="6.763"/><path fill="#fff" style="text-indent:0;text-align:start;line-height:normal;text-transform:none;block-progression:tb;marker:none;-inkscape-font-specification:Sans" d="m 1138.6798,594.53962 c 0.022,0.0139 0.048,0.0162 0.067,0.0334 l 8.3645,6.28174 8.3982,-6.28174 c 0.023,-0.0183 0.043,-0.0215 0.067,-0.0334 l -16.8971,0 z m -0.7055,0.73904 0,11.623 c 10e-5,0.28143 0.2561,0.53748 0.5375,0.53748 l 17.1994,0 c 0.2814,0 0.5375,-0.25605 0.5375,-0.53748 l 0,-11.55582 c -0.019,0.0258 -0.04,0.0451 -0.067,0.0666 l -8.7341,6.51694 c -0.1888,0.15114 -0.483,0.15114 -0.6718,0 l -8.7005,-6.51694 c -0.046,-0.0322 -0.073,-0.0903 -0.1007,-0.13437 z" color="#000" font-family="Sans" font-weight="400" overflow="visible"/></g></svg>